<svg version="1.1" id="Capa_1" xmlns="http://www.w3.org/2000/svg" x="0" y="0" width="30.711" height="30.711" xml:space="preserve"><path d="M19.008 18.814c1.055-1.071 1.836-2.51 2.301-3.886.637-.262 1.156-.912 1.354-1.701.182-.727.608-2.43-.328-2.955V9.055c.063-2.158-.187-4.777-2.664-5.848a4.011 4.011 0 01-.244-1.064L19.215 0l-1.523 1.436c-.498.469-2.792.922-4.262 1.068l-.7.109c-4.5.707-4.437 2.99-4.369 5.412.008.315.017.647.017 1.002l.033 1.1c-.673.445-.829 1.5-.449 3.057.193.775.74 1.43 1.334 1.609.286.793 1.06 2.641 2.407 4.021-5.605 1.414-9.727 5.98-9.727 11.396v.5h26.758v-.5c.002-5.413-4.121-9.981-9.726-11.396zm3.232 10.899v-2.615a.499.499 0 10-1 0v2.615H9.474v-2.615a.5.5 0 10-1 0v2.615H2.992c.194-3.74 2.563-6.984 6.015-8.805l5.983 6.795a.508.508 0 00.375.168h.003a.493.493 0 00.376-.174l5.856-6.846c3.51 1.809 5.926 5.08 6.123 8.858H22.24v.004zm-7.953-9.345l-.662.565 1.083.932-.79 3.105-3.974-4.512c.855-.367 1.763-.65 2.713-.838a4.83 4.83 0 001.63.748zm3.764-.744a13.35 13.35 0 012.606.791l-3.977 4.646-.812-3.195 1.083-.932-.63-.541a4.914 4.914 0 001.73-.769zm-7.931-5.61c-.384.082-.982-.377-1.157-1.08-.18-.715-.298-1.871.092-1.979a.474.474 0 01.355.055V9.024c0-3.125-.705-4.959 4.173-5.481l-.043-.015s3.847-.387 4.859-1.342c0 0 .027.805.439 1.689 2.25.904 2.533 2.988 2.469 5.148v1.987a.475.475 0 01.354-.058c.389.107.182 1.31.002 2.023-.175.695-.677 1.109-1.06 1.037-.496 1.51-1.474 3.423-2.858 4.54-.195.156-.396.3-.607.421a3.78 3.78 0 01-1.049.411 3.27 3.27 0 01-.73.089c-.256 0-.5-.035-.74-.089a3.796 3.796 0 01-1.057-.407 5.103 5.103 0 01-.61-.422c-1.377-1.101-2.335-2.996-2.832-4.541z"/></svg>